<defs>
<font horiz-adv-x="233" ><font-face
    font-family="leaguegothic-condensed-regular"
    units-per-em="1000"
    panose-1="0 0 5 6 0 0 0 0 0 0"
    ascent="935"
    descent="-265"
    alphabetic="0" />
<missing-glyph horiz-adv-x="92" />
<glyph unicode="&#xd;" glyph-name="CR" horiz-adv-x="108" />
<glyph unicode=" " glyph-name="space" horiz-adv-x="108" />
<glyph unicode="!" glyph-name="exclam" horiz-adv-x="143" d="M29 198L13 735H101L85 198H29ZM16 0V111H97V0H16Z" />
<glyph unicode="&quot;" glyph-name="quotedbl" horiz-adv-x="204" d="M82 466H19L10 735H91L82 466ZM183 466H120L111 735H192L183 466Z" />
<glyph unicode="#" glyph-name="numbersign" horiz-adv-x="391" d="M5 214L13 309H71Q72 336 76 372L82 435H25L32 530H90Q92 569 98 632L107 735H182L166 530H224Q226 569 232 632L241 735H316L299 530H356L348 435H292L286 372Q282 331 281 309H337L329 214H273L264
107Q258 35 256 0H180L197 214H139L130 107Q124 35 122 0H46L64 214H5ZM158 435L147 309H205Q206 336 210 372L216 435H158Z" />
<glyph unicode="$" glyph-name="dollar" horiz-adv-x="234" d="M88 795H130V734Q167 729 189 687Q207 650 210 596L145 584Q142 613 135 629T113 645Q99 645 91 620Q84 594 84 566Q84 531 104 482Q114 457 143 401Q155 378 167 353Q196 295 208 243Q214 213 214
181Q214 107 196 63Q173 8 130 1V-105H88V3Q45 14 24 64Q3 110 3 175L68 181Q70 142 80 118Q92 90 112 90Q129 90 137 118Q144 140 144 180Q144 218 124 265Q112 293 105 306Q82 348 61 392Q31 457 21 503Q14 538 14 564Q14 622 30 667Q48 718 88 731V795Z" />
<glyph unicode="%" glyph-name="percent" horiz-adv-x="409" d="M170 658V445Q168 407 149 383T96 359Q60 359 41 384T21 445V658Q21 695 41 719T96 743Q164 743 170 658ZM144 0H77L287 735H351L144 0ZM110 445V658Q110 685 96 685Q81 685 81 658V445Q79 418 96
418Q110 418 110 445ZM406 290V77Q404 40 385 16T332 -8Q296 -8 277 17T257 77V290Q257 327 277 351T332 376Q367 376 385 351T406 290ZM346 77V290Q346 317 332 317Q317 317 317 290V77Q315 49 332 49Q346 49 346 77Z" />
<glyph unicode="&amp;" glyph-name="ampersand" horiz-adv-x="280" d="M191 329L257 317Q255 255 212 126Q219 111 247 96V-8Q240 -6 235 -4T225 0T217 5T210 9T204 14T199 19T195 25T191 31T187 38T182 45Q162 -8 103 -8Q64 -8 38 20T4 79T-4 142Q-4 211 55 367Q24
480 24 583Q27 743 112 743Q139 743 157 727T184 683T195 634T198 586Q198 549 188 506T169 443T139 371Q173 244 175 239Q191 283 191 329ZM128 586Q130 657 110 657Q92 657 92 586Q92 521 106 476Q128 540 128 586ZM146 127Q121 182 97 264Q77 167 77 143Q77
118 85 99T107 79Q133 79 146 127Z" />
<glyph unicode="&apos;" glyph-name="quotesingle" horiz-adv-x="121" d="M80 466H17L8 735H89L80 466Z" />
<glyph unicode="(" glyph-name="parenleft" horiz-adv-x="194" d="M99 786L160 733Q120 633 98 486Q86 410 86 315Q86 154 124 12Q139 -50 160 -102L100 -154Q50 -28 23 138Q10 216 10 315Q10 475 53 639Q74 716 99 786Z" />
<glyph unicode=")" glyph-name="parenright" horiz-adv-x="194" d="M4 733L65 786Q115 652 141 493Q154 414 154 315Q154 155 111 -9Q95 -72 64 -154L4 -102Q38 -21 67 145Q79 231 79 315Q79 462 41 618Q20 694 4 733Z" />
<glyph unicode="*" glyph-name="asterisk" horiz-adv-x="229" d="M73 659L68 735H131L126 658L173 682L188 613L135 594L178 529L130 480L99 541L69 480L20 529L67 594L11 613L25 682L73 659Z" />
<glyph unicode="+" glyph-name="plus" horiz-adv-x="341" d="M13 317V401H121V570H190V401H298V317H190V148H121V317H13Z" />
<glyph unicode="," glyph-name="comma" horiz-adv-x="121" d="M85 111V0L52 -130H4L29 0H4V111H85Z" />
<glyph unicode="-" glyph-name="hyphen" horiz-adv-x="160" d="M13 222V317H118V222H13Z" />
<glyph unicode="." glyph-name="period" horiz-adv-x="124" d="M7 0V111H88V0H7Z" />
<glyph unicode="/" glyph-name="slash" horiz-adv-x="241" d="M-7 -72L152 735H218L61 -72H-7Z" />
<glyph unicode="0" glyph-name="zero" horiz-adv-x="242" d="M210 594V141Q210 76 187 34T110 -8Q73 -8 50 15T18 70T9 141V594Q9 658 33 700T110 743Q147 743 171 717T202 660T210 594ZM127 141V594Q127 638 111 638Q94 638 94 594V141Q94 97 111 97Q127 97 127 141Z" />
<glyph unicode="1" glyph-name="one" horiz-adv-x="169" d="M41 576H-2V643Q28 654 54 697Q62 713 67 735H124V0H41V576Z" />
<glyph unicode="2" glyph-name="two" horiz-adv-x="244" d="M92 502H9V553Q12 743 109 743T206 560Q206 397 98 107H201V0H7V107Q48 216 66 266T104 401T126 553Q126 643 109 643T92 553V502Z" />
<glyph unicode="3" glyph-name="three" horiz-adv-x="231" d="M7 212H88Q88 87 106 87Q123 87 123 187Q121 272 110 301T64 332V421Q80 422 91 430T107 447T115 474T118 504T119 539Q119 545 119 548Q119 645 104 645Q86 645 86 523H4Q4 743 103 743Q140 743 164
713T195 648T202 579Q202 498 192 454T152 375Q204 340 204 188Q204 147 201 116T187 55T157 9T106 -8Q7 -8 7 212Z" />
<glyph unicode="4" glyph-name="four" horiz-adv-x="234" d="M114 0V160H1V255L104 735H185V255H215V160H185V0H114ZM116 255V482L71 255H116Z" />
<glyph unicode="5" glyph-name="five" horiz-adv-x="236" d="M128 164V348Q128 371 123 386T110 402Q100 402 95 382T89 348H17V735H191V628H91V471Q92 481 107 490T134 500Q209 500 209 348V174Q207 -8 106 -8Q79 -8 60 8T32 45T19 100T14 153T13 202Q13 210
13 214H95V165Q95 86 110 86Q128 86 128 164Z" />
<glyph unicode="6" glyph-name="six" horiz-adv-x="235" d="M210 321V141Q209 82 183 37T104 -8Q67 -8 45 20T16 78T10 141V575Q12 743 109 743Q207 743 207 575V523H127Q127 649 109 649Q93 649 93 575V439Q95 444 106 450T128 456Q210 456 210 321ZM93 342V129Q93
86 111 86Q130 86 130 129V339Q130 372 111 372Q96 372 93 342Z" />
<glyph unicode="7" glyph-name="seven" horiz-adv-x="203" d="M26 0L92 628H-6V735H176V627L111 0H26Z" />
<glyph unicode="8" glyph-name="eight" horiz-adv-x="234" d="M207 625V483Q207 421 168 388Q210 364 210 283V127Q210 73 186 33T112 -8Q62 -8 38 34T14 127V283Q14 346 56 388Q17 427 17 483V625Q17 672 41 707T112 743Q160 743 183 707T207 625ZM129 530V610Q129
651 112 651T95 610V530V462Q95 448 100 439T112 429T123 438T129 462V530ZM129 200V290Q129 332 112 332T95 290V200V122Q95 108 100 99T112 89T123 98T129 122V200Z" />
<glyph unicode="9" glyph-name="nine" horiz-adv-x="235" d="M2 414V594Q3 653 29 698T108 743Q145 743 167 715T196 657T202 594V160Q200 -8 103 -8Q5 -8 5 160V212H85Q85 86 103 86Q119 86 119 160V296Q117 291 106 285T84 279Q2 279 2 414ZM119 393V606Q119
649 101 649Q82 649 82 606V396Q82 363 101 363Q116 363 119 393Z" />
<glyph unicode=":" glyph-name="colon" horiz-adv-x="136" d="M13 436V547H94V436H13ZM13 0V111H94V0H13Z" />
<glyph unicode=";" glyph-name="semicolon" horiz-adv-x="136" d="M13 436V547H94V436H13ZM94 111V0L61 -130H13L38 0H13V111H94Z" />
<glyph unicode="&lt;" glyph-name="less" horiz-adv-x="340" d="M13 320V392L298 640V533L90 356Q97 350 193 268L298 179V72L13 320Z" />
<glyph unicode="=" glyph-name="equal" horiz-adv-x="340" d="M13 422V506H298V422H13ZM13 233V317H298V233H13Z" />
<glyph unicode="&gt;" glyph-name="greater" horiz-adv-x="340" d="M298 392V320L13 72V179L220 356L13 533V640L298 392Z" />
<glyph unicode="?" glyph-name="question" horiz-adv-x="153" d="M116 198H45V323Q45 375 65 455Q73 486 96 544Q101 556 105 569T113 602T112 633T91 645Q75 645 61 618Q60 616 46 574L-14 615Q-8 647 18 690Q49 739 93 739Q185 739 185 609Q185 562 156 492Q145
464 143 460Q126 418 119 376Q116 359 116 323V198ZM41 0V111H122V0H41Z" />
<glyph unicode="@" glyph-name="at" horiz-adv-x="338" d="M309 578V190H242L229 221Q225 207 210 195T178 183Q153 183 139 209T125 275V508Q125 598 188 598Q207 598 223 584Q221 609 211 622Q197 648 158 648Q121 648 107 622Q93 600 93 578V152Q93 130 107
111Q122 84 158 84Q199 84 221 119L292 69Q244 -11 158 -11Q81 -11 36 53Q8 96 8 152V578Q8 636 36 681Q79 746 158 746T282 681Q309 637 309 578ZM226 281V500Q226 517 213 517Q202 517 202 500V281Q202 274 206 269T214 264Q226 264 226 281Z" />
<glyph unicode="A" glyph-name="A" horiz-adv-x="254" d="M78 0H-3L64 735H161L227 0H146L135 150H89L78 0ZM128 264L112 556L97 264H128Z" />
<glyph unicode="B" glyph-name="B" horiz-adv-x="248" d="M124 0H15V735H88Q144 735 174 692Q208 640 208 540Q208 477 200 445Q187 404 165 388Q197 358 206 316Q213 284 213 208Q213 106 197 63Q173 0 124 0ZM98 628V432Q114 432 118 438Q129 453 129 530T118
622Q112 628 98 628ZM98 333V107Q114 107 118 112Q129 127 129 220Q129 317 118 328Q113 333 98 333Z" />
<glyph unicode="C" glyph-name="C" horiz-adv-x="238" d="M125 252H206V141Q206 76 183 34T107 -8Q71 -8 48 17T17 73T9 141V594Q9 653 32 698T107 743Q135 743 156 728T187 688T201 640T206 594V483H125V594Q125 638 108 638Q94 638 94 598V141Q94 97 108 97Q125
97 125 141V252Z" />
<glyph unicode="D" glyph-name="D" horiz-adv-x="253" d="M95 0H15V735H84Q133 735 156 719T194 659Q213 596 213 367Q213 109 198 65Q187 33 164 17T95 0ZM98 627V108Q106 108 109 108T118 113T128 130T131 164V336Q131 576 128 603Q127 609 125 613T122 620T116
624T111 626T104 626T98 627Z" />
<glyph unicode="E" glyph-name="E" horiz-adv-x="214" d="M15 0V735H181V624H98V431H158V313H98V111H181V0H15Z" />
<glyph unicode="F" glyph-name="F" horiz-adv-x="211" d="M187 735V624H98V431H158V320H98V0H15V735H187Z" />
<glyph unicode="G" glyph-name="G" horiz-adv-x="246" d="M207 471H124V594Q124 638 108 638Q93 638 93 594V132Q93 88 110 88Q130 88 130 132V275H112V366H207V0H164L155 27Q148 14 131 3T100 -8Q74 -8 55 7T27 47T13 95T9 141V594Q9 653 33 698T108 743Q136
743 157 729T188 690T202 643T207 594V471Z" />
<glyph unicode="H" glyph-name="H" horiz-adv-x="258" d="M130 0V320H98V0H15V735H98V431H130V735H213V0H130Z" />
<glyph unicode="I" glyph-name="I" horiz-adv-x="143" d="M15 0V735H98V0H15Z" />
<glyph unicode="J" glyph-name="J" horiz-adv-x="154" d="M-4 -6V102Q18 97 25 114T33 153V735H116V136Q116 65 89 27T-4 -6Z" />
<glyph unicode="K" glyph-name="K" horiz-adv-x="255" d="M15 735H95V524L149 735H230L157 466L228 0H147L95 350V0H15V735Z" />
<glyph unicode="L" glyph-name="L" horiz-adv-x="207" d="M15 0V735H98V100H184V0H15Z" />
<glyph unicode="M" glyph-name="M" horiz-adv-x="320" d="M168 0H123L92 362V0H15V735H107L145 388L183 735H275V0H196V362L168 0Z" />
<glyph unicode="N" glyph-name="N" horiz-adv-x="267" d="M152 0L92 357V0H15V735H85L145 388V735H222V0H152Z" />
<glyph unicode="O" glyph-name="O" horiz-adv-x="242" d="M210 594V141Q210 76 187 34T110 -8Q73 -8 50 15T18 70T9 141V594Q9 658 33 700T110 743Q147 743 171 717T202 660T210 594ZM127 141V594Q127 638 111 638Q94 638 94 594V141Q94 97 111 97Q127 97 127 141Z" />
<glyph unicode="P" glyph-name="P" horiz-adv-x="241" d="M15 0V735H99Q149 735 177 691Q212 635 212 515Q212 392 177 336Q152 296 98 294V0H15ZM98 627V404Q118 404 124 416Q132 432 132 511Q132 598 124 616Q119 627 98 627Z" />
<glyph unicode="Q" glyph-name="Q" horiz-adv-x="244" d="M206 594V141Q206 97 191 54V53V52Q200 38 214 34V-56Q153 -56 133 -4H132Q126 -6 123 -6L111 -8H103Q102 -8 100 -8L99 -7Q65 -5 44 20T16 74T9 141V594Q9 743 106 743Q143 743 167 717T198 660T206 594ZM121
141V594Q121 638 107 638Q94 638 94 594V141Q94 97 107 97Q121 97 121 141Z" />
<glyph unicode="R" glyph-name="R" horiz-adv-x="247" d="M222 0H141L98 320V0H15V735H99Q156 735 182 682T209 523Q209 401 171 356L222 0ZM98 628V405Q113 405 120 416Q130 430 130 519Q130 604 121 618Q115 628 98 628Z" />
<glyph unicode="S" glyph-name="S" horiz-adv-x="236" d="M204 549L122 537Q122 644 106 644Q92 644 92 571Q92 521 141 398Q173 320 188 269T204 167Q204 -8 105 -8Q83 -8 66 1T39 22T21 55T10 92T4 134T2 171T2 205L83 217Q83 91 105 91Q116 91 119 107T122
162Q122 204 108 247T56 382Q11 503 11 571Q11 599 14 625T27 679T56 725T104 743Q204 745 204 549Z" />
<glyph unicode="T" glyph-name="T" horiz-adv-x="220" d="M53 624H-8V735H197V624H136V0H53V624Z" />
<glyph unicode="U" glyph-name="U" horiz-adv-x="250" d="M122 735H205V141Q205 -8 107 -8Q8 -8 8 141V735H91V141Q91 97 107 97Q122 97 122 141V735Z" />
<glyph unicode="V" glyph-name="V" horiz-adv-x="240" d="M-4 735H77L105 359L133 735H214L146 0H64L-4 735Z" />
<glyph unicode="W" glyph-name="W" horiz-adv-x="334" d="M180 0L152 352L124 0H54L-2 735H76L97 390L121 735H182L207 391Q210 445 217 563T227 735H305L251 0H180Z" />
<glyph unicode="X" glyph-name="X" horiz-adv-x="246" d="M139 0L108 203L77 0H-4L67 386Q66 392 52 459T32 560L-3 735H79L108 557Q113 587 122 646T137 735H219L149 386Q153 364 160 322T172 260L220 0H139Z" />
<glyph unicode="Y" glyph-name="Y" horiz-adv-x="235" d="M80 735L108 521Q112 555 122 626T137 735H219L150 313V0H67V313L-2 735H80Z" />
<glyph unicode="Z" glyph-name="Z" horiz-adv-x="214" d="M-3 0V116L98 628H11V735H187V628L83 107H187V0H-3Z" />
<glyph unicode="[" glyph-name="bracketleft" horiz-adv-x="188" d="M150 735V639H91V-8H150V-104H15V735H150Z" />
<glyph unicode="\" glyph-name="backslash" horiz-adv-x="262" d="M59 826L239 -88H172L-7 826H59Z" />
<glyph unicode="]" glyph-name="bracketright" horiz-adv-x="188" d="M8 639V735H143V-104H8V-8H67V639H8Z" />
<glyph unicode="^" glyph-name="asciicircum" horiz-adv-x="353" d="M118 735H205L316 395H240L161 633L83 395H7L118 735Z" />
<glyph unicode="_" glyph-name="underscore" horiz-adv-x="354" d="M13 -159V-75H312V-159H13Z" />
<glyph unicode="`" glyph-name="grave" horiz-adv-x="330" d="M78 727H158L189 637H125L78 727Z" />
<glyph unicode="a" glyph-name="a" horiz-adv-x="230" d="M113 363V422Q113 468 100 468Q93 468 90 452T86 422V386H10V419Q10 472 33 513T103 555Q145 555 167 516T187 431V95Q187 40 192 0H125Q116 15 113 33Q97 -8 62 -8Q5 -8 5 127Q5 259 81 324Q109 348 113
363ZM112 124V251Q98 233 88 197T77 128Q77 87 91 87Q100 87 106 98T112 124Z" />
<glyph unicode="b" glyph-name="b" horiz-adv-x="231" d="M15 0V735H94V524Q96 534 110 544T135 555Q196 555 196 448V99Q196 97 196 82T196 61T194 41T189 21T182 7T169 -4T151 -8Q133 -8 116 5T94 30V0H15ZM94 431V125Q94 87 108 87T122 125V431Q122 467 108
467T94 431Z" />
<glyph unicode="c" glyph-name="c" horiz-adv-x="219" d="M89 427V126Q89 83 104 83Q120 83 120 126V202H196V139Q196 111 195 94T188 55T173 21T145 1T101 -8Q73 -8 54 7T26 47T14 95T10 144V403Q10 430 14 454T28 502T57 540T103 555Q135 555 155 543T183 507T194
462T196 408V355H120V427Q120 467 105 467Q98 467 94 455T89 427Z" />
<glyph unicode="d" glyph-name="d" horiz-adv-x="231" d="M202 735V0H123V30Q118 19 101 6T66 -8Q56 -8 48 -5T36 7T28 21T24 41T22 60T21 81T21 99V448Q21 555 82 555Q93 555 107 545T123 524V735H202ZM123 125V431Q123 467 109 467T95 431V125Q95 87 109 87T123 125Z" />
<glyph unicode="e" glyph-name="e" horiz-adv-x="223" d="M121 196H196V127Q196 -8 97 -8Q64 -8 44 14T17 65T10 130V415Q10 471 33 513T102 555Q132 555 152 543T181 510T193 467T196 418V255H87V136Q87 81 102 81Q121 81 121 136V196ZM87 411V334H121V411Q121
467 101 467Q87 467 87 411Z" />
<glyph unicode="f" glyph-name="f" horiz-adv-x="169" d="M106 0H28V456H-3V547H28V579Q28 612 30 633T40 682T63 724T106 739Q126 739 143 729V646Q125 657 115 647Q106 637 106 585V547H137V456H106V0Z" />
<glyph unicode="g" glyph-name="g" horiz-adv-x="245" d="M191 429V264Q188 212 164 171T94 129H89Q83 119 83 105Q83 82 123 71Q166 59 183 40Q214 2 214 -56Q214 -116 187 -156T101 -196Q50 -196 23 -168T-5 -90Q-5 -45 47 -7H48Q5 14 5 66Q5 111 46 148Q8 206
8 267V416Q9 449 17 478T46 531T99 555Q142 555 161 521Q190 555 224 555V465Q196 465 187 453Q191 445 191 429ZM114 262V417Q114 467 99 467Q86 467 86 417V262Q86 213 99 213Q114 213 114 262ZM113 -35L89 -27Q71 -47 71 -73Q71 -111 102 -111Q118 -111 128
-100T139 -74Q139 -45 113 -35Z" />
<glyph unicode="h" glyph-name="h" horiz-adv-x="229" d="M94 431V0H15V735H94V524Q96 534 110 544T137 555Q160 555 174 534T191 492T195 448V0H120V431Q120 467 107 467T94 431Z" />
<glyph unicode="i" glyph-name="i" horiz-adv-x="132" d="M15 634V735H94V634H15ZM94 0H15V547H94V0Z" />
<glyph unicode="j" glyph-name="j" horiz-adv-x="137" d="M13 634V735H92V634H13ZM13 547H92V-14Q92 -86 83 -122Q76 -151 58 -169T13 -188Q-5 -188 -22 -180L-20 -89Q-12 -89 -6 -91T3 -87T9 -78T12 -67T13 -54T13 -41Q13 -38 13 -36V547Z" />
<glyph unicode="k" glyph-name="k" horiz-adv-x="218" d="M15 735H91V433L128 547H204L137 359L202 0H126L91 232V0H15V735Z" />
<glyph unicode="l" glyph-name="l" horiz-adv-x="137" d="M94 0H15V735H94V0Z" />
<glyph unicode="m" glyph-name="m" horiz-adv-x="329" d="M195 431V0H123V433Q123 467 108 467Q94 467 94 431V0H15V547H94V518Q103 533 118 544T148 555Q164 555 174 543T186 515Q193 531 212 543T248 555Q298 555 298 448V0H225V431Q225 467 210 467T195 431Z" />
<glyph unicode="n" glyph-name="n" horiz-adv-x="232" d="M94 431V0H15V547H94V519Q102 531 118 543T147 555Q201 555 201 448V0H123V432Q123 467 108 467Q94 467 94 431Z" />
<glyph unicode="o" glyph-name="o" horiz-adv-x="223" d="M195 414V133Q195 65 174 29T102 -8Q10 -8 10 136V411Q10 555 104 555Q159 555 177 519T195 414ZM120 126V421Q122 467 103 467Q85 467 85 421V126Q83 81 102 81Q112 81 116 98T120 126Z" />
<glyph unicode="p" glyph-name="p" horiz-adv-x="231" d="M15 -188V547H94V519Q100 532 116 543T146 555Q201 555 201 448V99Q198 -8 146 -8Q132 -8 117 4T94 32V-188H15ZM94 430V120Q94 87 109 87Q123 87 123 120V430Q123 467 109 467Q94 467 94 430Z" />
<glyph unicode="q" glyph-name="q" horiz-adv-x="231" d="M201 547V-188H122V32Q115 16 100 4T70 -8Q18 -8 15 99V448Q15 555 70 555Q84 555 100 544T122 519V547H201ZM122 120V430Q122 467 107 467Q93 467 93 430V120Q93 87 107 87Q122 87 122 120Z" />
<glyph unicode="r" glyph-name="r" horiz-adv-x="178" d="M159 555V435Q126 454 109 436T92 380V0H15V547H92V517Q114 555 159 555Z" />
<glyph unicode="s" glyph-name="s" horiz-adv-x="215" d="M186 407H118Q118 471 100 471Q86 471 86 414Q86 404 88 393T92 374T99 354T107 337T116 320T124 305Q184 206 184 124Q184 103 181 83T168 41T140 6T93 -8Q63 -8 44 6T16 49T5 101T2 159H74Q74 76 93
76Q109 76 109 142Q109 174 68 260Q64 268 53 289T37 321T25 350T15 387T12 425Q12 481 33 518T98 555Q186 555 186 407Z" />
<glyph unicode="t" glyph-name="t" horiz-adv-x="175" d="M35 682H112V547H154V456H112V0H35V456H2V547H35V682Z" />
<glyph unicode="u" glyph-name="u" horiz-adv-x="232" d="M118 116V547H197V0H118V28Q110 16 94 4T65 -8Q11 -8 11 99V547H89V115Q89 80 104 80Q118 80 118 116Z" />
<glyph unicode="v" glyph-name="v" horiz-adv-x="206" d="M132 0H54L-4 547H70L93 226L117 547H191L132 0Z" />
<glyph unicode="w" glyph-name="w" horiz-adv-x="295" d="M220 0H155L132 260L110 0H46L-3 547H68L87 296L109 547H157L178 296L197 547H268L220 0Z" />
<glyph unicode="x" glyph-name="x" horiz-adv-x="217" d="M6 0L62 282L1 547H75L100 410L127 547H201L139 282L195 0H122L100 148Q97 129 90 71T80 0H6Z" />
<glyph unicode="y" glyph-name="y" horiz-adv-x="228" d="M11 -193V-104Q34 -113 46 -99Q64 -72 64 -16L-2 547H75L104 224Q107 262 117 386T130 547H208L140 -41Q134 -108 112 -147Q95 -179 68 -191T11 -193Z" />
<glyph unicode="z" glyph-name="z" horiz-adv-x="186" d="M-5 0V82L78 455H8V547H160V465L77 92H160V0H-5Z" />
<glyph unicode="{" glyph-name="braceleft" horiz-adv-x="232" d="M194 743V659Q148 658 136 635T123 563V369Q123 332 109 300T73 261Q95 246 109 217T123 153V-41Q124 -78 128 -95T147 -125T194 -137V-221Q146 -221 116 -210T71 -174T52 -119T47 -41V153Q47
172 40 191Q30 220 9 221V301Q31 301 40 330Q47 348 47 369V563Q49 663 77 704T194 743Z" />
<glyph unicode="|" glyph-name="bar" horiz-adv-x="134" d="M89 -250H15V826H89V-250Z" />
<glyph unicode="}" glyph-name="braceright" horiz-adv-x="232" d="M8 659V743Q97 745 125 704T155 563V369Q155 348 162 330Q171 301 193 301V221Q172 220 162 191Q155 172 155 153V-41Q155 -90 151 -119T132 -173T87 -210T8 -221V-137Q52 -137 64 -116T79 -41V153Q79
188 93 217T129 261Q108 268 94 300T79 369V563Q79 612 67 635T8 659Z" />
<glyph unicode="~" glyph-name="asciitilde" horiz-adv-x="405" d="M80 623L24 663Q38 731 79 787Q99 810 131 810Q170 810 213 765L218 760Q249 725 263 725Q279 725 296 769Q301 777 309 811Q309 813 310 817T311 822L368 783Q351 709 313 658Q295 635 263 635Q237
635 219 647T178 684Q146 720 131 720Q115 720 95 676Q84 644 80 623Z" />
<glyph unicode="&#x93;" glyph-name="uni0093" horiz-adv-x="232" d="M7 494V605L40 735H88L67 605H88V494H7ZM115 494V605L148 735H196L175 605H196V494H115Z" />
<glyph unicode="&#x94;" glyph-name="uni0094" horiz-adv-x="228" d="M88 735V624L55 494H7L28 624H7V735H88ZM196 735V624L163 494H115L136 624H115V735H196Z" />
<glyph unicode="&#xa1;" glyph-name="exclamdown" horiz-adv-x="143" d="M16 436V547H97V436H16ZM13 -188L29 349H85L101 -188H13Z" />
<glyph unicode="&#xa2;" glyph-name="cent" horiz-adv-x="217" d="M86 522V221Q86 178 101 178Q117 178 117 221V297H193V234Q193 203 191 184T182 142T162 107T125 89V-60H72V87Q36 100 22 145T7 239V498Q7 546 21 590T71 647V765H125V648Q148 643 163 630T184
593T191 552T193 503V450H117V522Q117 562 102 562Q95 562 91 550T86 522Z" />
<glyph unicode="&#xa3;" glyph-name="sterling" horiz-adv-x="269" d="M221 547H140Q140 643 119 643T98 561Q98 509 121 384H182V317H131Q139 267 139 232Q139 182 120 125Q123 122 127 118T138 108T150 97L158 118Q166 138 167 191L240 177Q236 88 214 40T157
-8Q138 -8 111 17T77 42T61 17Q57 8 50 -20L-8 33Q2 74 28 113Q36 125 54 135Q65 184 65 232Q65 267 56 317H1V384H45Q42 396 38 415Q19 518 19 561Q19 636 38 683Q61 742 115 743Q176 744 202 683Q221 633 221 547Z" />
<glyph unicode="&#xa5;" glyph-name="yen" horiz-adv-x="241" d="M19 166V233H70V300H19V367H62L-2 735H80L111 521Q114 545 127 624T144 735H226L161 367H205V300H153V233H205V166H153V0H70V166H19Z" />
<glyph unicode="&#xa8;" glyph-name="dieresis" horiz-adv-x="330" d="M61 637V735H135V637H61ZM165 637V735H239V637H165Z" />
<glyph unicode="&#xa9;" glyph-name="copyright" horiz-adv-x="512" d="M7 367Q7 523 74 633Q139 743 241 743Q342 743 408 633Q475 523 475 367Q475 212 408 102Q342 -8 241 -8Q139 -8 74 102Q7 212 7 367ZM59 367Q59 235 115 144Q172 50 241 50Q311 50 368 144Q422
237 422 367Q422 499 368 592Q312 685 241 685Q171 685 115 592Q59 501 59 367ZM246 299H304V238Q301 188 279 157Q267 142 240 142Q195 142 181 190Q175 211 175 238V497Q175 546 200 578Q212 593 240 593Q283 593 297 545Q304 520 304 497V436H246V497Q247 512
242 523Q241 523 241 525L238 515Q238 514 238 514L237 512Q235 504 235 497V238Q235 220 241 210V207Q242 207 242 209T243 215T245 222Q248 232 246 238V299Z" />
<glyph unicode="&#xae;" glyph-name="registered" horiz-adv-x="512" d="M7 367Q7 523 74 633Q139 743 241 743Q342 743 408 633Q475 523 475 367Q475 212 408 102Q342 -8 241 -8Q139 -8 74 102Q7 212 7 367ZM59 367Q59 235 115 144Q172 50 241 50Q311 50 368
144Q422 237 422 367Q422 499 368 592Q312 685 241 685Q171 685 115 592Q59 501 59 367ZM174 582H241Q317 582 317 456Q317 386 291 348H292L323 153H260L235 318V153H174V582ZM239 519H235V393H239Q259 393 259 455Q259 483 254 498Q249 519 239 519Z" />
<glyph unicode="&#xaf;" glyph-name="overscore" horiz-adv-x="330" d="M83 642V721H217V642H83Z" />
<glyph unicode="4;" glyph-name="acute" horiz-adv-x="330" d="M142 727H222L175 637H111L142 727Z" />
<glyph unicode="7;" glyph-name="middot" horiz-adv-x="93" d="M-9 317V428H72V317H-9Z" />
<glyph unicode="8;" glyph-name="cedilla" horiz-adv-x="330" d="M184 -54V-123L171 -188H122L138 -123H116V-54H184Z" />
<glyph unicode="f;" glyph-name="questiondown" horiz-adv-x="219" d="M130 547V436H49V547H130ZM55 349H126V224Q126 172 106 92Q98 61 75 3Q70 -9 66 -22T58 -55T59 -86T80 -98Q96 -98 110 -71Q111 -69 125 -27L185 -68Q179 -100 153 -143Q122 -192 78 -192Q-14
-192 -14 -62Q-14 -15 15 55Q26 83 28 87Q45 129 52 171Q55 188 55 224V349Z" />
<glyph unicode="0;" glyph-name="Agrave" horiz-adv-x="254" d="M33 890H113L145 800H81L33 890ZM78 0H-3L64 735H161L227 0H146L135 150H89L78 0ZM128 264L112 556L97 264H128Z" />
<glyph unicode="1;" glyph-name="Aacute" horiz-adv-x="254" d="M108 890H188L141 800H77L108 890ZM78 0H-3L64 735H161L227 0H146L135 150H89L78 0ZM128 264L112 556L97 264H128Z" />
<glyph unicode="2;" glyph-name="Acircumflex" horiz-adv-x="254" d="M73 890H154L195 800H130L113 839L96 800H31L73 890ZM78 0H-3L64 735H161L227 0H146L135 150H89L78 0ZM128 264L112 556L97 264H128Z" />
<glyph unicode="3;" glyph-name="Atilde" horiz-adv-x="254" d="M46 783V869Q61 890 87 890Q99 890 115 882T140 873T162 883T180 902V819Q165 794 140 794Q128 794 112 803T86 813Q78 813 65 802T46 783ZM78 0H-3L64 735H161L227 0H146L135 150H89L78 0ZM128
264L112 556L97 264H128Z" />
<glyph unicode="4;" glyph-name="Adieresis" horiz-adv-x="254" d="M28 800V898H102V800H28ZM125 800V898H198V800H125ZM78 0H-3L64 735H161L227 0H146L134 150H90L78 0ZM127 264L112 526L98 264H127Z" />
<glyph unicode="5;" glyph-name="Aring" horiz-adv-x="254" d="M59 830T59 860T74 910T113 930Q135 930 150 910T166 860T151 810T113 790Q90 790 75 810ZM98 874T98 860T102 837T113 828Q118 828 123 837T128 860T123 882T113 891Q107 891 103 883ZM78 0H-3L64
735H161L227 0H146L134 150H90L78 0ZM127 264L112 526L98 264H127Z" />
<glyph unicode="6;" glyph-name="AE" horiz-adv-x="352" d="M153 0V150H104L78 0H-4L119 735H319V624H236V431H296V313H236V111H319V0H153ZM153 538L121 264H153V538Z" />
<glyph unicode="7;" glyph-name="Ccedilla" horiz-adv-x="238" d="M125 252H206V141Q206 76 183 34T107 -8Q71 -8 48 17T17 73T9 141V594Q9 653 32 698T107 743Q135 743 156 728T187 688T201 640T206 594V483H125V594Q125 638 108 638Q94 638 94 598V141Q94
97 108 97Q125 97 125 141V252ZM138 -54V-123L125 -188H76L88 -123H70V-54H138Z" />
<glyph unicode="8;" glyph-name="Egrave" horiz-adv-x="214" d="M24 890H104L136 800H72L24 890ZM15 0V735H181V624H98V431H158V313H98V111H181V0H15Z" />
<glyph unicode="9;" glyph-name="Eacute" horiz-adv-x="214" d="M91 890H171L124 800H60L91 890ZM15 0V735H181V624H98V431H158V313H98V111H181V0H15Z" />
<glyph unicode="a;" glyph-name="Ecircumflex" horiz-adv-x="214" d="M60 890H141L182 800H117L100 839L83 800H18L60 890ZM15 0V735H181V624H98V431H158V313H98V111H181V0H15Z" />
<glyph unicode="b;" glyph-name="Edieresis" horiz-adv-x="214" d="M15 800V898H89V800H15ZM112 800V898H185V800H112ZM15 0V735H181V624H98V431H158V313H98V111H181V0H15Z" />
<glyph unicode="c;" glyph-name="Igrave" horiz-adv-x="148" d="M-10 890H70L101 800H38L-10 890ZM20 0V735H103V0H20Z" />
<glyph unicode="d;" glyph-name="Iacute" horiz-adv-x="148" d="M47 890H127L80 800H16L47 890ZM15 0V735H98V0H15Z" />
<glyph unicode="e;" glyph-name="Icircumflex" horiz-adv-x="139" d="M13 890H94L135 800H70L53 839L36 800H-29L13 890ZM13 0V735H95V0H13Z" />
<glyph unicode="f;" glyph-name="Idieresis" horiz-adv-x="139" d="M-29 800V898H45V800H-29ZM68 800V898H141V800H68ZM13 0V735H96V0H13Z" />
<glyph unicode="&#xd0;" glyph-name="Eth" horiz-adv-x="253" d="M15 735H75Q172 735 192 673T213 367Q213 301 213 265T210 184T205 118T194 72T178 36T153 16T120 3T75 0H15V320H-3V431H15V735ZM98 320V108Q106 108 109 108T118 113T128 130T131 164V336Q131
576 128 603Q127 609 125 613T122 620T116 624T111 626T104 626T98 627V431H113V320H98Z" />
<glyph unicode="&#xd1;" glyph-name="Ntilde" horiz-adv-x="267" d="M51 783V869Q66 890 92 890Q104 890 120 882T145 873T167 883T185 902V819Q170 794 145 794Q133 794 117 803T91 813Q83 813 70 802T51 783ZM152 0L92 357V0H15V735H85L145 388V735H222V0H152Z" />
<glyph unicode="&#xd2;" glyph-name="Ograve" horiz-adv-x="242" d="M27 890H107L139 800H75L27 890ZM210 594V141Q210 76 187 34T110 -8Q73 -8 50 15T18 70T9 141V594Q9 658 33 700T110 743Q147 743 171 717T202 660T210 594ZM127 141V594Q127 638 111 638Q94
638 94 594V141Q94 97 111 97Q127 97 127 141Z" />
<glyph unicode="&#xd3;" glyph-name="Oacute" horiz-adv-x="242" d="M106 890H186L138 800H74L106 890ZM210 594V141Q210 76 187 34T110 -8Q73 -8 50 15T18 70T9 141V594Q9 658 33 700T110 743Q147 743 171 717T202 660T210 594ZM127 141V594Q127 638 111 638Q94
638 94 594V141Q94 97 111 97Q127 97 127 141Z" />
<glyph unicode="&#xd4;" glyph-name="Ocircumflex" horiz-adv-x="242" d="M69 890H150L191 800H126L109 839L92 800H27L69 890ZM210 594V141Q210 76 187 34T110 -8Q73 -8 50 15T18 70T9 141V594Q9 658 33 700T110 743Q147 743 171 717T202 660T210 594ZM127 141V594Q127
638 111 638Q94 638 94 594V141Q94 97 111 97Q127 97 127 141Z" />
<glyph unicode="&#xd5;" glyph-name="Otilde" horiz-adv-x="242" d="M39 783V869Q54 890 80 890Q92 890 108 882T133 873T155 883T173 902V819Q158 794 133 794Q121 794 105 803T79 813Q71 813 58 802T39 783ZM210 594V141Q210 76 187 34T110 -8Q73 -8 50 15T18
70T9 141V594Q9 658 33 700T110 743Q147 743 171 717T202 660T210 594ZM127 141V594Q127 638 111 638Q94 638 94 594V141Q94 97 111 97Q127 97 127 141Z" />
<glyph unicode="&#xd6;" glyph-name="Odieresis" horiz-adv-x="242" d="M25 800V898H99V800H25ZM122 800V898H195V800H122ZM210 594V141Q210 76 187 34T110 -8Q73 -8 50 15T18 70T9 141V594Q9 658 33 700T110 743Q147 743 171 717T202 660T210 594ZM127 141V594Q127
638 111 638Q94 638 94 594V141Q94 97 111 97Q127 97 127 141Z" />
<glyph unicode="&#xd8;" glyph-name="Oslash" horiz-adv-x="242" d="M213 594V141Q213 76 190 34T113 -8Q88 -8 66 4L63 -10H15L27 53Q12 88 12 141V594Q12 658 36 700T113 743Q139 743 160 730L163 745H209L197 682Q213 645 213 594ZM130 576V594Q130 638 114
638Q97 638 97 594V408L130 576ZM97 165V141Q97 97 114 97Q130 97 130 141V336L97 165Z" />
<glyph unicode="&#xd9;" glyph-name="Ugrave" horiz-adv-x="250" d="M35 890H115L146 800H82L35 890ZM122 735H205V141Q205 -8 107 -8Q8 -8 8 141V735H91V141Q91 97 107 97Q122 97 122 141V735Z" />
<glyph unicode="&#xda;" glyph-name="Uacute" horiz-adv-x="250" d="M112 890H192L145 800H81L112 890ZM122 735H205V141Q205 -8 107 -8Q8 -8 8 141V735H91V141Q91 97 107 97Q122 97 122 141V735Z" />
<glyph unicode="&#xdb;" glyph-name="Ucircumflex" horiz-adv-x="250" d="M64 890H145L186 800H121L104 839L87 800H22L64 890ZM122 735H205V141Q205 -8 107 -8Q8 -8 8 141V735H91V141Q91 97 107 97Q122 97 122 141V735Z" />
<glyph unicode="&#xdc;" glyph-name="Udieresis" horiz-adv-x="250" d="M21 800V898H95V800H21ZM118 800V898H191V800H118ZM122 735H205V141Q205 -8 107 -8Q8 -8 8 141V735H91V141Q91 97 107 97Q122 97 122 141V735Z" />
<glyph unicode="&#xdd;" glyph-name="Yacute" horiz-adv-x="236" d="M97 890H177L129 800H65L97 890ZM80 735L108 521Q112 555 122 626T137 735H219L150 313V0H67V313L-2 735H80Z" />
<glyph unicode="&#xde;" glyph-name="Thorn" horiz-adv-x="242" d="M15 0V735H98V617Q147 614 175 571Q212 512 212 397Q212 283 175 224Q145 181 98 176V0H15ZM98 507V286Q115 290 121 306Q130 324 130 393Q130 464 121 484Q113 504 98 507Z" />
<glyph unicode="&#xdf;" glyph-name="germandbls" horiz-adv-x="251" d="M109 478V547Q120 547 127 562T135 604Q135 625 128 639T108 653Q86 653 86 603V0H7V603Q7 662 32 702T108 743Q161 743 184 702T207 604Q207 554 178 519Q203 493 213 446Q225 389 225
281Q225 108 200 49Q188 21 166 11T109 0V94Q131 94 138 127Q147 168 147 281Q147 401 138 443Q130 478 109 478Z" />
<glyph unicode="&#xe0;" glyph-name="agrave" horiz-adv-x="230" d="M32 727H112L143 637H79L32 727ZM113 363V422Q113 468 100 468Q93 468 90 452T86 422V386H10V419Q10 472 33 513T103 555Q145 555 167 516T187 431V95Q187 40 192 0H125Q116 15 113 33Q97 -8
62 -8Q5 -8 5 127Q5 259 81 324Q109 348 113 363ZM112 124V251Q98 233 88 197T77 128Q77 87 91 87Q100 87 106 98T112 124Z" />
<glyph unicode="&#xe1;" glyph-name="aacute" horiz-adv-x="230" d="M91 727H171L123 637H59L91 727ZM113 363V422Q113 468 100 468Q93 468 90 452T86 422V386H10V419Q10 472 33 513T103 555Q145 555 167 516T187 431V95Q187 40 192 0H125Q116 15 113 33Q97 -8
62 -8Q5 -8 5 127Q5 259 81 324Q109 348 113 363ZM112 124V251Q98 233 88 197T77 128Q77 87 91 87Q100 87 106 98T112 124Z" />
<glyph unicode="&#xe2;" glyph-name="acircumflex" horiz-adv-x="230" d="M60 727H141L182 637H117L100 676L83 637H18L60 727ZM113 363V422Q113 468 100 468Q93 468 90 452T86 422V386H10V419Q10 472 33 513T103 555Q145 555 167 516T187 431V95Q187 40 192 0H125Q116
15 113 33Q97 -8 62 -8Q5 -8 5 127Q5 259 81 324Q109 348 113 363ZM112 124V251Q98 233 88 197T77 128Q77 87 91 87Q100 87 106 98T112 124Z" />
<glyph unicode="&#xe3;" glyph-name="atilde" horiz-adv-x="230" d="M32 619V705Q47 726 73 726Q85 726 101 718T126 709T148 719T166 738V655Q151 630 126 630Q114 630 98 639T72 649Q64 649 51 638T32 619ZM113 363V422Q113 468 100 468Q93 468 90 452T86 422V386H10V419Q10
472 33 513T103 555Q145 555 167 516T187 431V95Q187 40 192 0H125Q116 15 113 33Q97 -8 62 -8Q5 -8 5 127Q5 259 81 324Q109 348 113 363ZM112 124V251Q98 233 88 197T77 128Q77 87 91 87Q100 87 106 98T112 124Z" />
<glyph unicode="&#xe4;" glyph-name="adieresis" horiz-adv-x="230" d="M17 637V735H91V637H17ZM114 637V735H187V637H114ZM113 363V422Q113 468 100 468Q93 468 90 452T86 422V386H10V419Q10 472 33 513T103 555Q145 555 167 516T187 431V95Q187 40 192 0H125Q116
15 113 33Q97 -8 62 -8Q5 -8 5 127Q5 259 81 324Q109 348 113 363ZM112 124V251Q98 233 88 197T77 128Q77 87 91 87Q100 87 106 98T112 124Z" />
<glyph unicode="&#xe5;" glyph-name="aring" horiz-adv-x="230" d="M47 664T47 694T62 744T101 764Q123 764 138 744T154 694T139 644T101 624Q78 624 63 644ZM86 708T86 694T90 671T101 662Q106 662 111 671T116 694T111 716T101 725Q95 725 91 717ZM113 363V422Q113
468 100 468Q93 468 90 452T86 422V386H10V419Q10 472 33 513T103 555Q145 555 167 516T187 431V95Q187 40 192 0H125Q116 15 113 33Q97 -8 62 -8Q5 -8 5 127Q5 259 81 324Q109 348 113 363ZM112 124V251Q98 233 88 197T77 128Q77 87 91 87Q100 87 106 98T112 124Z"
/>
<glyph unicode="&#xe6;" glyph-name="ae" horiz-adv-x="333" d="M228 196H303V127Q303 -8 204 -8Q166 -8 145 19Q124 -8 82 -8Q52 -8 34 20T11 75T7 127Q7 259 83 324Q111 348 115 363V422Q115 468 102 468Q95 468 92 452T88 422V386H12V419Q12 472 35 513T105
555Q133 555 155 533Q179 555 209 555T259 543T288 510T300 467T303 418V255H194V136Q194 81 209 81Q228 81 228 136V196ZM194 411V334H228V411Q228 467 208 467Q194 467 194 411ZM114 124V251Q100 233 90 197T79 128Q79 87 93 87Q102 87 108 98T114 124Z" />
<glyph unicode="&#xe7;" glyph-name="ccedilla" horiz-adv-x="219" d="M89 427V126Q89 83 104 83Q120 83 120 126V202H196V139Q196 111 195 94T188 55T173 21T145 1T101 -8Q73 -8 54 7T26 47T14 95T10 144V403Q10 430 14 454T28 502T57 540T103 555Q135 555 155
543T183 507T194 462T196 408V355H120V427Q120 467 105 467Q98 467 94 455T89 427ZM129 -54V-123L116 -188H67L79 -123H61V-54H129Z" />
<glyph unicode="&#xe8;" glyph-name="egrave" horiz-adv-x="223" d="M22 727H102L133 637H69L22 727ZM121 196H196V127Q196 -8 97 -8Q64 -8 44 14T17 65T10 130V415Q10 471 33 513T102 555Q132 555 152 543T181 510T193 467T196 418V255H87V136Q87 81 102 81Q121
81 121 136V196ZM87 411V334H121V411Q121 467 101 467Q87 467 87 411Z" />
<glyph unicode="&#xe9;" glyph-name="eacute" horiz-adv-x="223" d="M100 727H180L132 637H68L100 727ZM121 196H196V127Q196 -8 97 -8Q64 -8 44 14T17 65T10 130V415Q10 471 33 513T102 555Q132 555 152 543T181 510T193 467T196 418V255H87V136Q87 81 102 81Q121
81 121 136V196ZM87 411V334H121V411Q121 467 101 467Q87 467 87 411Z" />
<glyph unicode="&#xea;" glyph-name="ecircumflex" horiz-adv-x="223" d="M62 727H143L184 637H119L102 676L85 637H20L62 727ZM121 196H196V127Q196 -8 97 -8Q64 -8 44 14T17 65T10 130V415Q10 471 33 513T102 555Q132 555 152 543T181 510T193 467T196 418V255H87V136Q87
81 102 81Q121 81 121 136V196ZM87 411V334H121V411Q121 467 101 467Q87 467 87 411Z" />
<glyph unicode="&#xeb;" glyph-name="edieresis" horiz-adv-x="223" d="M18 637V735H92V637H18ZM115 637V735H188V637H115ZM121 196H196V127Q196 -8 97 -8Q64 -8 44 14T17 65T10 130V415Q10 471 33 513T102 555Q132 555 152 543T181 510T193 467T196 418V255H87V136Q87
81 102 81Q121 81 121 136V196ZM87 411V334H121V411Q121 467 101 467Q87 467 87 411Z" />
<glyph unicode="&#xec;" glyph-name="igrave" horiz-adv-x="139" d="M-18 727H62L94 637H30L-18 727ZM94 0H15V547H94V0Z" />
<glyph unicode="&#xed;" glyph-name="iacute" horiz-adv-x="139" d="M46 727H126L79 637H15L46 727ZM94 0H15V547H94V0Z" />
<glyph unicode="&#xee;" glyph-name="icircumflex" horiz-adv-x="139" d="M15 727H96L137 637H72L55 676L38 637H-27L15 727ZM94 0H15V547H94V0Z" />
<glyph unicode="&#xef;" glyph-name="idieresis" horiz-adv-x="139" d="M-30 637V735H44V637H-30ZM67 637V735H140V637H67ZM94 0H15V547H94V0Z" />
<glyph unicode="&#xf0;" glyph-name="eth" horiz-adv-x="227" d="M71 687L113 751L129 718L156 758L178 714L150 671Q192 559 192 453V133Q192 101 184 71T154 17T100 -8Q51 -8 30 35T8 136V419Q11 555 73 555Q89 555 108 538Q106 556 98 600L77 569L55 612L87
657Q85 663 81 670T74 682L71 687ZM117 126V421Q117 467 100 467Q93 467 88 449T83 421V126Q83 81 100 81Q106 81 111 97T117 126Z" />
<glyph unicode="&#xf1;" glyph-name="ntilde" horiz-adv-x="232" d="M34 623V709Q49 730 75 730Q87 730 103 722T128 713T150 723T168 742V659Q153 634 128 634Q116 634 100 643T74 653Q66 653 53 642T34 623ZM94 431V0H15V547H94V519Q102 531 118 543T147 555Q201
555 201 448V0H123V432Q123 467 108 467Q94 467 94 431Z" />
<glyph unicode="&#xf2;" glyph-name="ograve" horiz-adv-x="223" d="M21 727H101L132 637H68L21 727ZM195 414V133Q195 65 174 29T102 -8Q10 -8 10 136V411Q10 555 104 555Q159 555 177 519T195 414ZM120 126V421Q122 467 103 467Q85 467 85 421V126Q83 81 102
81Q112 81 116 98T120 126Z" />
<glyph unicode="&#xf3;" glyph-name="oacute" horiz-adv-x="223" d="M98 727H178L131 637H67L98 727ZM195 414V133Q195 65 174 29T102 -8Q10 -8 10 136V411Q10 555 104 555Q159 555 177 519T195 414ZM120 126V421Q122 467 103 467Q85 467 85 421V126Q83 81 102
81Q112 81 116 98T120 126Z" />
<glyph unicode="&#xf4;" glyph-name="ocircumflex" horiz-adv-x="223" d="M62 727H143L184 637H119L102 676L85 637H20L62 727ZM195 414V133Q195 65 174 29T102 -8Q10 -8 10 136V411Q10 555 104 555Q159 555 177 519T195 414ZM120 126V421Q122 467 103 467Q85
467 85 421V126Q83 81 102 81Q112 81 116 98T120 126Z" />
<glyph unicode="&#xf5;" glyph-name="otilde" horiz-adv-x="223" d="M29 622V708Q44 729 70 729Q82 729 98 721T123 712T145 722T163 741V658Q148 633 123 633Q111 633 95 642T69 652Q61 652 48 641T29 622ZM195 414V133Q195 65 174 29T102 -8Q10 -8 10 136V411Q10
555 104 555Q159 555 177 519T195 414ZM120 126V421Q122 467 103 467Q85 467 85 421V126Q83 81 102 81Q112 81 116 98T120 126Z" />
<glyph unicode="&#xf6;" glyph-name="odieresis" horiz-adv-x="223" d="M18 637V735H92V637H18ZM115 637V735H188V637H115ZM195 414V133Q195 65 174 29T102 -8Q10 -8 10 136V411Q10 555 104 555Q159 555 177 519T195 414ZM120 126V421Q122 467 103 467Q85 467
85 421V126Q83 81 102 81Q112 81 116 98T120 126Z" />
<glyph unicode="&#xf8;" glyph-name="oslash" horiz-adv-x="229" d="M141 550L148 584H191L178 521Q198 490 198 414V133Q198 65 177 29T105 -8Q90 -8 75 -3L69 -37H24L36 26Q13 60 13 136V411Q13 555 107 555Q124 555 141 550ZM88 283L121 451Q118 467 106 467Q88
467 88 421V283ZM123 238L93 88Q98 81 105 81Q115 81 119 98T123 126V238Z" />
<glyph unicode="&#xf9;" glyph-name="ugrave" horiz-adv-x="232" d="M25 727H105L136 637H72L25 727ZM118 116V547H197V0H118V28Q110 16 94 4T65 -8Q11 -8 11 99V547H89V115Q89 80 104 80Q118 80 118 116Z" />
<glyph unicode="&#xfa;" glyph-name="uacute" horiz-adv-x="232" d="M103 727H183L135 637H71L103 727ZM118 116V547H197V0H118V28Q110 16 94 4T65 -8Q11 -8 11 99V547H89V115Q89 80 104 80Q118 80 118 116Z" />
<glyph unicode="&#xfb;" glyph-name="ucircumflex" horiz-adv-x="232" d="M62 727H143L184 637H119L102 676L85 637H20L62 727ZM118 116V547H197V0H118V28Q110 16 94 4T65 -8Q11 -8 11 99V547H89V115Q89 80 104 80Q118 80 118 116Z" />
<glyph unicode="&#xfc;" glyph-name="udieresis" horiz-adv-x="232" d="M17 637V735H91V637H17ZM114 637V735H187V637H114ZM118 116V547H197V0H118V28Q110 16 94 4T65 -8Q11 -8 11 99V547H89V115Q89 80 104 80Q118 80 118 116Z" />
<glyph unicode="&#xfd;" glyph-name="yacute" horiz-adv-x="226" d="M95 727H175L128 637H64L95 727ZM11 -193V-104Q34 -113 46 -99Q64 -72 64 -16L-2 547H75L104 224Q107 262 117 386T130 547H208L140 -41Q134 -108 112 -147Q95 -179 68 -191T11 -193Z" />
<glyph unicode="&#xfe;" glyph-name="thorn" horiz-adv-x="231" d="M14 -188V735H93V524Q95 534 109 544T134 555Q195 555 195 448V99Q195 97 195 82T195 61T193 41T188 21T181 7T168 -4T150 -8Q132 -8 115 5T93 30V-188H14ZM93 431V125Q93 87 107 87T121 125V431Q121
467 107 467T93 431Z" />
<glyph unicode="&#xff;" glyph-name="ydieresis" horiz-adv-x="216" d="M17 637V735H91V637H17ZM114 637V735H187V637H114ZM11 -193V-104Q34 -113 46 -99Q64 -72 64 -16L-2 547H75L104 224Q107 262 117 386T130 547H208L140 -41Q134 -108 112 -147Q95 -179 68
-191T11 -193Z" />
</font>
</defs>
</svg>
